<mxfile host="app.diagrams.net" modified="2021-11-30T15:31:31.288Z" agent="5.0 (Windows)" etag="m3G1ZRwYfzrL8rQ0EW1P" version="15.8.7" type="github">
  <diagram id="mLPpQYJzLz1xqzUndZVS" name="Page-1">
    <mxGraphModel dx="1422" dy="752" grid="1" gridSize="10" guides="1" tooltips="1" connect="1" arrows="1" fold="1" page="1" pageScale="1" pageWidth="827" pageHeight="1169" math="0" shadow="0">
      <root>
        <mxCell id="0" />
        <mxCell id="1" parent="0" />
        <mxCell id="8U_8XwLauRsZ4ZYQqi3w-3" value="Xilinx XCZU7EV-1FBVB900 (PL)" style="shape=umlFrame;whiteSpace=wrap;html=1;width=210;height=30;boundedLbl=1;verticalAlign=middle;align=left;spacingLeft=5;fillColor=default;swimlaneFillColor=#ffffff;" parent="1" vertex="1">
          <mxGeometry x="40" y="240" width="770" height="1200" as="geometry" />
        </mxCell>
        <mxCell id="8U_8XwLauRsZ4ZYQqi3w-2" value="&lt;div&gt;Ethernet MAC&lt;/div&gt;" style="shape=umlFrame;whiteSpace=wrap;html=1;width=120;height=30;boundedLbl=1;verticalAlign=middle;align=left;spacingLeft=5;fillColor=#FFFFFF;swimlaneFillColor=#ECFFD9;" parent="1" vertex="1">
          <mxGeometry x="80" y="300" width="690" height="240" as="geometry" />
        </mxCell>
        <mxCell id="9wRkoVYpAe7Pgj8xl5cS-7" value="" style="group;fillColor=none;" parent="1" vertex="1" connectable="0">
          <mxGeometry x="200" y="10" width="400" height="160" as="geometry" />
        </mxCell>
        <mxCell id="9wRkoVYpAe7Pgj8xl5cS-1" value="AVNET Network FMC" style="shape=umlFrame;whiteSpace=wrap;html=1;width=150;height=30;boundedLbl=1;verticalAlign=middle;align=left;spacingLeft=5;fillColor=#FFFFFF;swimlaneFillColor=#F5F4F7;" parent="9wRkoVYpAe7Pgj8xl5cS-7" vertex="1">
          <mxGeometry width="360" height="160" as="geometry" />
        </mxCell>
        <mxCell id="9wRkoVYpAe7Pgj8xl5cS-3" value="&lt;span style=&quot;&quot;&gt;RJ-45&lt;/span&gt;" style="rounded=0;whiteSpace=wrap;html=1;labelBackgroundColor=none;fillColor=#F7F2FF;" parent="9wRkoVYpAe7Pgj8xl5cS-7" vertex="1">
          <mxGeometry x="320" y="50" width="80" height="80" as="geometry" />
        </mxCell>
        <mxCell id="9wRkoVYpAe7Pgj8xl5cS-4" value="Ethernet PHY" style="rounded=0;whiteSpace=wrap;html=1;labelBackgroundColor=none;fillColor=#F7F2FF;" parent="9wRkoVYpAe7Pgj8xl5cS-7" vertex="1">
          <mxGeometry x="50" y="50" width="200" height="80" as="geometry" />
        </mxCell>
        <mxCell id="9wRkoVYpAe7Pgj8xl5cS-6" value="" style="shape=flexArrow;endArrow=classic;startArrow=classic;html=1;rounded=0;fontColor=none;entryX=0;entryY=0.5;entryDx=0;entryDy=0;exitX=1;exitY=0.5;exitDx=0;exitDy=0;fillColor=default;" parent="9wRkoVYpAe7Pgj8xl5cS-7" source="9wRkoVYpAe7Pgj8xl5cS-4" target="9wRkoVYpAe7Pgj8xl5cS-3" edge="1">
          <mxGeometry width="100" height="100" relative="1" as="geometry">
            <mxPoint x="200" y="150" as="sourcePoint" />
            <mxPoint x="300" y="50" as="targetPoint" />
          </mxGeometry>
        </mxCell>
        <mxCell id="9wRkoVYpAe7Pgj8xl5cS-8" value="RGMII" style="shape=flexArrow;endArrow=classic;startArrow=classic;html=1;rounded=0;fontColor=none;entryX=0.5;entryY=1;entryDx=0;entryDy=0;width=18;fillColor=#FFFFFF;labelBackgroundColor=none;horizontal=0;startSize=6;" parent="1" target="9wRkoVYpAe7Pgj8xl5cS-4" edge="1">
          <mxGeometry width="100" height="100" relative="1" as="geometry">
            <mxPoint x="350" y="300" as="sourcePoint" />
            <mxPoint x="690" y="390" as="targetPoint" />
          </mxGeometry>
        </mxCell>
        <mxCell id="9wRkoVYpAe7Pgj8xl5cS-9" value="TX FIFO (ETH Frame)" style="swimlane;fontStyle=0;childLayout=stackLayout;horizontal=1;startSize=30;horizontalStack=0;resizeParent=1;resizeParentMax=0;resizeLast=0;collapsible=1;marginBottom=0;labelBackgroundColor=none;fontColor=none;fillColor=#FFF0F1;" parent="1" vertex="1">
          <mxGeometry x="260" y="360" width="140" height="120" as="geometry" />
        </mxCell>
        <mxCell id="9wRkoVYpAe7Pgj8xl5cS-10" value="  " style="text;strokeColor=default;fillColor=#FFF0F1;align=left;verticalAlign=middle;spacingLeft=4;spacingRight=4;overflow=hidden;points=[[0,0.5],[1,0.5]];portConstraint=eastwest;rotatable=0;labelBackgroundColor=none;fontColor=none;labelBorderColor=none;" parent="9wRkoVYpAe7Pgj8xl5cS-9" vertex="1">
          <mxGeometry y="30" width="140" height="30" as="geometry" />
        </mxCell>
        <mxCell id="9wRkoVYpAe7Pgj8xl5cS-11" value=" " style="text;strokeColor=default;fillColor=#FFF0F1;align=left;verticalAlign=middle;spacingLeft=4;spacingRight=4;overflow=hidden;points=[[0,0.5],[1,0.5]];portConstraint=eastwest;rotatable=0;labelBackgroundColor=none;fontColor=none;" parent="9wRkoVYpAe7Pgj8xl5cS-9" vertex="1">
          <mxGeometry y="60" width="140" height="30" as="geometry" />
        </mxCell>
        <mxCell id="9wRkoVYpAe7Pgj8xl5cS-12" value=" " style="text;strokeColor=default;fillColor=#FFF0F1;align=left;verticalAlign=middle;spacingLeft=4;spacingRight=4;overflow=hidden;points=[[0,0.5],[1,0.5]];portConstraint=eastwest;rotatable=0;labelBackgroundColor=none;fontColor=none;" parent="9wRkoVYpAe7Pgj8xl5cS-9" vertex="1">
          <mxGeometry y="90" width="140" height="30" as="geometry" />
        </mxCell>
        <mxCell id="9wRkoVYpAe7Pgj8xl5cS-14" value="RX FIFO (ETH Frame)" style="swimlane;fontStyle=0;childLayout=stackLayout;horizontal=1;startSize=30;horizontalStack=0;resizeParent=1;resizeParentMax=0;resizeLast=0;collapsible=1;marginBottom=0;labelBackgroundColor=none;fontColor=none;fillColor=#FAF2FF;" parent="1" vertex="1">
          <mxGeometry x="100" y="360" width="130" height="120" as="geometry" />
        </mxCell>
        <mxCell id="9wRkoVYpAe7Pgj8xl5cS-15" value="  " style="text;strokeColor=default;fillColor=#FAF2FF;align=left;verticalAlign=middle;spacingLeft=4;spacingRight=4;overflow=hidden;points=[[0,0.5],[1,0.5]];portConstraint=eastwest;rotatable=0;labelBackgroundColor=none;fontColor=none;labelBorderColor=none;" parent="9wRkoVYpAe7Pgj8xl5cS-14" vertex="1">
          <mxGeometry y="30" width="130" height="30" as="geometry" />
        </mxCell>
        <mxCell id="9wRkoVYpAe7Pgj8xl5cS-16" value=" " style="text;strokeColor=default;fillColor=#FAF2FF;align=left;verticalAlign=middle;spacingLeft=4;spacingRight=4;overflow=hidden;points=[[0,0.5],[1,0.5]];portConstraint=eastwest;rotatable=0;labelBackgroundColor=none;fontColor=none;" parent="9wRkoVYpAe7Pgj8xl5cS-14" vertex="1">
          <mxGeometry y="60" width="130" height="30" as="geometry" />
        </mxCell>
        <mxCell id="9wRkoVYpAe7Pgj8xl5cS-17" value=" " style="text;strokeColor=default;fillColor=#FAF2FF;align=left;verticalAlign=middle;spacingLeft=4;spacingRight=4;overflow=hidden;points=[[0,0.5],[1,0.5]];portConstraint=eastwest;rotatable=0;labelBackgroundColor=none;fontColor=none;" parent="9wRkoVYpAe7Pgj8xl5cS-14" vertex="1">
          <mxGeometry y="90" width="130" height="30" as="geometry" />
        </mxCell>
        <mxCell id="9wRkoVYpAe7Pgj8xl5cS-18" value="RX PTP &#xa;TS FIFO" style="swimlane;fontStyle=0;childLayout=stackLayout;horizontal=1;startSize=40;horizontalStack=0;resizeParent=1;resizeParentMax=0;resizeLast=0;collapsible=1;marginBottom=0;labelBackgroundColor=none;fontColor=none;fillColor=#FFFBED;" parent="1" vertex="1">
          <mxGeometry x="480" y="420" width="100" height="100" as="geometry" />
        </mxCell>
        <mxCell id="9wRkoVYpAe7Pgj8xl5cS-19" value="  " style="text;strokeColor=default;fillColor=#FFFBED;align=left;verticalAlign=middle;spacingLeft=4;spacingRight=4;overflow=hidden;points=[[0,0.5],[1,0.5]];portConstraint=eastwest;rotatable=0;labelBackgroundColor=none;fontColor=none;labelBorderColor=none;" parent="9wRkoVYpAe7Pgj8xl5cS-18" vertex="1">
          <mxGeometry y="40" width="100" height="20" as="geometry" />
        </mxCell>
        <mxCell id="9wRkoVYpAe7Pgj8xl5cS-20" value=" " style="text;strokeColor=default;fillColor=#FFFBED;align=left;verticalAlign=middle;spacingLeft=4;spacingRight=4;overflow=hidden;points=[[0,0.5],[1,0.5]];portConstraint=eastwest;rotatable=0;labelBackgroundColor=none;fontColor=none;" parent="9wRkoVYpAe7Pgj8xl5cS-18" vertex="1">
          <mxGeometry y="60" width="100" height="20" as="geometry" />
        </mxCell>
        <mxCell id="9wRkoVYpAe7Pgj8xl5cS-21" value=" " style="text;strokeColor=default;fillColor=#FFFBED;align=left;verticalAlign=middle;spacingLeft=4;spacingRight=4;overflow=hidden;points=[[0,0.5],[1,0.5]];portConstraint=eastwest;rotatable=0;labelBackgroundColor=none;fontColor=none;" parent="9wRkoVYpAe7Pgj8xl5cS-18" vertex="1">
          <mxGeometry y="80" width="100" height="20" as="geometry" />
        </mxCell>
        <mxCell id="9wRkoVYpAe7Pgj8xl5cS-26" value="PTP Clock" style="shape=umlFrame;whiteSpace=wrap;html=1;width=120;height=30;boundedLbl=1;verticalAlign=middle;align=left;spacingLeft=5;fillColor=#FFFFFF;swimlaneFillColor=#FFEBF4;" parent="1" vertex="1">
          <mxGeometry x="480" y="310" width="250" height="80" as="geometry" />
        </mxCell>
        <mxCell id="9wRkoVYpAe7Pgj8xl5cS-29" value="Pulpissimo" style="shape=umlFrame;whiteSpace=wrap;html=1;width=80;height=30;boundedLbl=1;verticalAlign=middle;align=left;spacingLeft=5;fillColor=#FFFFFF;swimlaneFillColor=#E0F0FF;direction=west;" parent="1" vertex="1">
          <mxGeometry x="80" y="820" width="690" height="580" as="geometry" />
        </mxCell>
        <mxCell id="9wRkoVYpAe7Pgj8xl5cS-37" value="TCDM (Interconnect)" style="rounded=0;whiteSpace=wrap;html=1;glass=0;labelBackgroundColor=none;labelBorderColor=none;fontColor=none;strokeColor=default;fillColor=#FFFFFF;" parent="1" vertex="1">
          <mxGeometry x="110" y="1061" width="620" height="60" as="geometry" />
        </mxCell>
        <mxCell id="9wRkoVYpAe7Pgj8xl5cS-38" value="Memory" style="whiteSpace=wrap;html=1;aspect=fixed;glass=0;labelBackgroundColor=none;labelBorderColor=none;fontColor=none;strokeColor=default;fillColor=#FFE7CC;gradientColor=none;" parent="1" vertex="1">
          <mxGeometry x="550" y="1179" width="180" height="180" as="geometry" />
        </mxCell>
        <mxCell id="9wRkoVYpAe7Pgj8xl5cS-44" value="RISC-V Core (CV32E40P)" style="shape=umlFrame;whiteSpace=wrap;html=1;width=170;height=30;boundedLbl=1;verticalAlign=middle;align=left;spacingLeft=5;fillColor=#FFFFFF;swimlaneFillColor=#F1FCE1;direction=east;" parent="1" vertex="1">
          <mxGeometry x="110" y="1179" width="370" height="180" as="geometry" />
        </mxCell>
        <mxCell id="rF0F1VlUZs5a9LdYZ2Bc-1" value="&lt;b&gt;XILINX IPs&lt;/b&gt;" style="rounded=0;whiteSpace=wrap;html=1;fillColor=#CCFFCC;" vertex="1" parent="1">
          <mxGeometry x="90" y="590" width="680" height="210" as="geometry" />
        </mxCell>
        <mxCell id="9wRkoVYpAe7Pgj8xl5cS-49" value="RX PTP &#xa;TS FIFO" style="swimlane;fontStyle=0;childLayout=stackLayout;horizontal=1;startSize=40;horizontalStack=0;resizeParent=1;resizeParentMax=0;resizeLast=0;collapsible=1;marginBottom=0;labelBackgroundColor=none;fontColor=none;fillColor=#FFFBED;" parent="1" vertex="1">
          <mxGeometry x="632.5" y="420" width="100" height="100" as="geometry" />
        </mxCell>
        <mxCell id="9wRkoVYpAe7Pgj8xl5cS-50" value="  " style="text;strokeColor=default;fillColor=#FFFBED;align=left;verticalAlign=middle;spacingLeft=4;spacingRight=4;overflow=hidden;points=[[0,0.5],[1,0.5]];portConstraint=eastwest;rotatable=0;labelBackgroundColor=none;fontColor=none;labelBorderColor=none;" parent="9wRkoVYpAe7Pgj8xl5cS-49" vertex="1">
          <mxGeometry y="40" width="100" height="20" as="geometry" />
        </mxCell>
        <mxCell id="9wRkoVYpAe7Pgj8xl5cS-51" value=" " style="text;strokeColor=default;fillColor=#FFFBED;align=left;verticalAlign=middle;spacingLeft=4;spacingRight=4;overflow=hidden;points=[[0,0.5],[1,0.5]];portConstraint=eastwest;rotatable=0;labelBackgroundColor=none;fontColor=none;" parent="9wRkoVYpAe7Pgj8xl5cS-49" vertex="1">
          <mxGeometry y="60" width="100" height="20" as="geometry" />
        </mxCell>
        <mxCell id="9wRkoVYpAe7Pgj8xl5cS-52" value=" " style="text;strokeColor=default;fillColor=#FFFBED;align=left;verticalAlign=middle;spacingLeft=4;spacingRight=4;overflow=hidden;points=[[0,0.5],[1,0.5]];portConstraint=eastwest;rotatable=0;labelBackgroundColor=none;fontColor=none;" parent="9wRkoVYpAe7Pgj8xl5cS-49" vertex="1">
          <mxGeometry y="80" width="100" height="20" as="geometry" />
        </mxCell>
        <mxCell id="9wRkoVYpAe7Pgj8xl5cS-54" value="" style="shape=flexArrow;endArrow=classic;html=1;rounded=0;labelBackgroundColor=none;fontColor=none;fillColor=#FFFFFF;entryX=0.5;entryY=0;entryDx=0;entryDy=0;orthogonal=1;" parent="1" target="9wRkoVYpAe7Pgj8xl5cS-18" edge="1">
          <mxGeometry width="50" height="50" relative="1" as="geometry">
            <mxPoint x="530" y="390" as="sourcePoint" />
            <mxPoint x="310" y="550" as="targetPoint" />
          </mxGeometry>
        </mxCell>
        <mxCell id="9wRkoVYpAe7Pgj8xl5cS-56" value="" style="shape=flexArrow;endArrow=classic;html=1;rounded=0;labelBackgroundColor=none;fontColor=none;fillColor=#FFFFFF;entryX=0.5;entryY=0;entryDx=0;entryDy=0;orthogonal=1;" parent="1" edge="1">
          <mxGeometry width="50" height="50" relative="1" as="geometry">
            <mxPoint x="679.76" y="390" as="sourcePoint" />
            <mxPoint x="679.76" y="420" as="targetPoint" />
          </mxGeometry>
        </mxCell>
        <mxCell id="9wRkoVYpAe7Pgj8xl5cS-62" value="" style="shape=flexArrow;endArrow=classic;html=1;rounded=0;labelBackgroundColor=none;fontColor=none;fillColor=#FFFFFF;orthogonal=1;" parent="1" edge="1">
          <mxGeometry width="50" height="50" relative="1" as="geometry">
            <mxPoint x="220" y="1121" as="sourcePoint" />
            <mxPoint x="220" y="1179" as="targetPoint" />
          </mxGeometry>
        </mxCell>
        <mxCell id="9wRkoVYpAe7Pgj8xl5cS-64" value="" style="shape=flexArrow;endArrow=classic;html=1;rounded=0;labelBackgroundColor=none;fontColor=none;fillColor=#FFFFFF;exitX=0.356;exitY=0.01;exitDx=0;exitDy=0;exitPerimeter=0;" parent="1" edge="1">
          <mxGeometry width="50" height="50" relative="1" as="geometry">
            <mxPoint x="360.72" y="1179" as="sourcePoint" />
            <mxPoint x="360" y="1121" as="targetPoint" />
          </mxGeometry>
        </mxCell>
        <mxCell id="9wRkoVYpAe7Pgj8xl5cS-65" value="" style="shape=flexArrow;endArrow=classic;html=1;rounded=0;labelBackgroundColor=none;fontColor=none;fillColor=#FFFFFF;exitX=0.356;exitY=0.01;exitDx=0;exitDy=0;exitPerimeter=0;" parent="1" edge="1">
          <mxGeometry width="50" height="50" relative="1" as="geometry">
            <mxPoint x="690.72" y="1179" as="sourcePoint" />
            <mxPoint x="690" y="1121" as="targetPoint" />
          </mxGeometry>
        </mxCell>
        <mxCell id="9wRkoVYpAe7Pgj8xl5cS-66" value="" style="shape=flexArrow;endArrow=classic;html=1;rounded=0;labelBackgroundColor=none;fontColor=none;fillColor=#FFFFFF;orthogonal=1;" parent="1" edge="1">
          <mxGeometry width="50" height="50" relative="1" as="geometry">
            <mxPoint x="590" y="1121" as="sourcePoint" />
            <mxPoint x="590" y="1179" as="targetPoint" />
          </mxGeometry>
        </mxCell>
        <mxCell id="9wRkoVYpAe7Pgj8xl5cS-68" value="SW Stack" style="swimlane;fontStyle=0;childLayout=stackLayout;horizontal=1;startSize=30;horizontalStack=0;resizeParent=1;resizeParentMax=0;resizeLast=0;collapsible=1;marginBottom=0;glass=0;labelBackgroundColor=none;labelBorderColor=none;fontColor=none;strokeColor=default;fillColor=#A8FCFF;gradientColor=none;" parent="1" vertex="1">
          <mxGeometry x="225" y="1219" width="140" height="120" as="geometry" />
        </mxCell>
        <mxCell id="9wRkoVYpAe7Pgj8xl5cS-69" value="PTP" style="text;strokeColor=default;fillColor=#E0FFFE;align=left;verticalAlign=middle;spacingLeft=4;spacingRight=4;overflow=hidden;points=[[0,0.5],[1,0.5]];portConstraint=eastwest;rotatable=0;glass=0;labelBackgroundColor=none;labelBorderColor=none;fontColor=none;" parent="9wRkoVYpAe7Pgj8xl5cS-68" vertex="1">
          <mxGeometry y="30" width="140" height="30" as="geometry" />
        </mxCell>
        <mxCell id="9wRkoVYpAe7Pgj8xl5cS-70" value="IP/UDP" style="text;strokeColor=default;fillColor=#E0FFFE;align=left;verticalAlign=middle;spacingLeft=4;spacingRight=4;overflow=hidden;points=[[0,0.5],[1,0.5]];portConstraint=eastwest;rotatable=0;glass=0;labelBackgroundColor=none;labelBorderColor=none;fontColor=none;" parent="9wRkoVYpAe7Pgj8xl5cS-68" vertex="1">
          <mxGeometry y="60" width="140" height="30" as="geometry" />
        </mxCell>
        <mxCell id="9wRkoVYpAe7Pgj8xl5cS-71" value="HAL (PulpOS/Pulp-RT)" style="text;strokeColor=default;fillColor=#E0FFFE;align=left;verticalAlign=middle;spacingLeft=4;spacingRight=4;overflow=hidden;points=[[0,0.5],[1,0.5]];portConstraint=eastwest;rotatable=0;glass=0;labelBackgroundColor=none;labelBorderColor=none;fontColor=none;" parent="9wRkoVYpAe7Pgj8xl5cS-68" vertex="1">
          <mxGeometry y="90" width="140" height="30" as="geometry" />
        </mxCell>
        <mxCell id="0bZ0CAgHgtpychcCBRZJ-2" value="AXI Stream" style="shape=flexArrow;endArrow=classic;html=1;rounded=0;labelBackgroundColor=default;fontColor=none;fillColor=#FFFFFF;orthogonal=1;horizontal=0;width=20;endSize=7.33;entryX=0.5;entryY=0;entryDx=0;entryDy=0;" parent="1" target="eM6l_IBHpCTHizDekSns-28" edge="1">
          <mxGeometry width="50" height="50" relative="1" as="geometry">
            <mxPoint x="529.5" y="520" as="sourcePoint" />
            <mxPoint x="530" y="660" as="targetPoint" />
          </mxGeometry>
        </mxCell>
        <mxCell id="0bZ0CAgHgtpychcCBRZJ-3" value="AXI Stream" style="shape=flexArrow;endArrow=classic;html=1;rounded=0;labelBackgroundColor=default;fontColor=none;fillColor=#FFFFFF;orthogonal=1;horizontal=0;width=20;endSize=7.33;entryX=0.5;entryY=0;entryDx=0;entryDy=0;exitX=0.499;exitY=1.014;exitDx=0;exitDy=0;exitPerimeter=0;" parent="1" source="9wRkoVYpAe7Pgj8xl5cS-52" target="eM6l_IBHpCTHizDekSns-34" edge="1">
          <mxGeometry width="50" height="50" relative="1" as="geometry">
            <mxPoint x="683" y="520" as="sourcePoint" />
            <mxPoint x="680" y="660" as="targetPoint" />
          </mxGeometry>
        </mxCell>
        <mxCell id="eM6l_IBHpCTHizDekSns-1" value="AXI MM to AXI S" style="rounded=0;whiteSpace=wrap;html=1;" parent="1" vertex="1">
          <mxGeometry x="117.5" y="710" width="95" height="50" as="geometry" />
        </mxCell>
        <mxCell id="0bZ0CAgHgtpychcCBRZJ-1" value="AXI Stream" style="shape=flexArrow;endArrow=classic;html=1;rounded=0;labelBackgroundColor=default;fontColor=none;fillColor=#FFFFFF;orthogonal=1;horizontal=0;width=20;endSize=7.33;entryX=0.354;entryY=0;entryDx=0;entryDy=0;entryPerimeter=0;exitX=0.5;exitY=0;exitDx=0;exitDy=0;" parent="1" source="eM6l_IBHpCTHizDekSns-22" edge="1">
          <mxGeometry width="50" height="50" relative="1" as="geometry">
            <mxPoint x="329.48" y="660" as="sourcePoint" />
            <mxPoint x="329.5" y="480" as="targetPoint" />
          </mxGeometry>
        </mxCell>
        <mxCell id="eM6l_IBHpCTHizDekSns-5" value="AXI XBAR" style="rounded=0;whiteSpace=wrap;html=1;glass=0;labelBackgroundColor=none;labelBorderColor=none;fontColor=none;strokeColor=default;fillColor=#CCFFCC;" parent="1" vertex="1">
          <mxGeometry x="115" y="861" width="620" height="60" as="geometry" />
        </mxCell>
        <mxCell id="eM6l_IBHpCTHizDekSns-6" value="&lt;div&gt;TCDM to&lt;/div&gt;&lt;div&gt;AXI4&lt;br&gt;&lt;/div&gt;" style="rounded=0;whiteSpace=wrap;html=1;" parent="1" vertex="1">
          <mxGeometry x="387.5" y="970" width="75" height="40" as="geometry" />
        </mxCell>
        <mxCell id="eM6l_IBHpCTHizDekSns-19" value="" style="shape=flexArrow;endArrow=classic;startArrow=classic;html=1;rounded=0;entryX=0.5;entryY=1;entryDx=0;entryDy=0;fillColor=default;" parent="1" edge="1">
          <mxGeometry width="100" height="100" relative="1" as="geometry">
            <mxPoint x="425.16" y="970" as="sourcePoint" />
            <mxPoint x="424.66" y="920" as="targetPoint" />
          </mxGeometry>
        </mxCell>
        <mxCell id="eM6l_IBHpCTHizDekSns-20" value="" style="shape=flexArrow;endArrow=classic;startArrow=classic;html=1;rounded=0;entryX=0.5;entryY=1;entryDx=0;entryDy=0;fillColor=default;" parent="1" edge="1">
          <mxGeometry width="100" height="100" relative="1" as="geometry">
            <mxPoint x="425.16000000000025" y="1060" as="sourcePoint" />
            <mxPoint x="424.66000000000025" y="1010" as="targetPoint" />
          </mxGeometry>
        </mxCell>
        <mxCell id="eM6l_IBHpCTHizDekSns-2" value="AXI MM to AXI S&lt;br&gt;(AXI4 Slave)" style="rounded=0;whiteSpace=wrap;html=1;fillColor=#3399FF;" parent="1" vertex="1">
          <mxGeometry x="112.5" y="724" width="105" height="50" as="geometry" />
        </mxCell>
        <mxCell id="eM6l_IBHpCTHizDekSns-8" value="RX PTP &#xa;TS FIFO" style="swimlane;fontStyle=0;childLayout=stackLayout;horizontal=1;startSize=40;horizontalStack=0;resizeParent=1;resizeParentMax=0;resizeLast=0;collapsible=1;marginBottom=0;labelBackgroundColor=none;fontColor=none;fillColor=#F3DEFF;" parent="1" vertex="1">
          <mxGeometry x="112.5" y="624" width="105" height="100" as="geometry" />
        </mxCell>
        <mxCell id="eM6l_IBHpCTHizDekSns-9" value="  " style="text;strokeColor=default;fillColor=#F3DEFF;align=left;verticalAlign=middle;spacingLeft=4;spacingRight=4;overflow=hidden;points=[[0,0.5],[1,0.5]];portConstraint=eastwest;rotatable=0;labelBackgroundColor=none;fontColor=none;labelBorderColor=none;" parent="eM6l_IBHpCTHizDekSns-8" vertex="1">
          <mxGeometry y="40" width="105" height="20" as="geometry" />
        </mxCell>
        <mxCell id="eM6l_IBHpCTHizDekSns-10" value=" " style="text;strokeColor=default;fillColor=#F3DEFF;align=left;verticalAlign=middle;spacingLeft=4;spacingRight=4;overflow=hidden;points=[[0,0.5],[1,0.5]];portConstraint=eastwest;rotatable=0;labelBackgroundColor=none;fontColor=none;" parent="eM6l_IBHpCTHizDekSns-8" vertex="1">
          <mxGeometry y="60" width="105" height="20" as="geometry" />
        </mxCell>
        <mxCell id="eM6l_IBHpCTHizDekSns-11" value=" " style="text;strokeColor=default;fillColor=#F3DEFF;align=left;verticalAlign=middle;spacingLeft=4;spacingRight=4;overflow=hidden;points=[[0,0.5],[1,0.5]];portConstraint=eastwest;rotatable=0;labelBackgroundColor=none;fontColor=none;" parent="eM6l_IBHpCTHizDekSns-8" vertex="1">
          <mxGeometry y="80" width="105" height="20" as="geometry" />
        </mxCell>
        <mxCell id="eM6l_IBHpCTHizDekSns-18" value="" style="shape=flexArrow;endArrow=classic;startArrow=classic;html=1;rounded=0;entryX=0.5;entryY=1;entryDx=0;entryDy=0;fillColor=default;" parent="1" target="eM6l_IBHpCTHizDekSns-2" edge="1">
          <mxGeometry width="100" height="100" relative="1" as="geometry">
            <mxPoint x="165" y="860" as="sourcePoint" />
            <mxPoint x="410" y="770" as="targetPoint" />
          </mxGeometry>
        </mxCell>
        <mxCell id="eM6l_IBHpCTHizDekSns-21" value="AXI MM to AXI S&lt;br&gt;(AXI4 Slave)" style="rounded=0;whiteSpace=wrap;html=1;fillColor=#3399FF;" parent="1" vertex="1">
          <mxGeometry x="277.5" y="724" width="105" height="50" as="geometry" />
        </mxCell>
        <mxCell id="eM6l_IBHpCTHizDekSns-22" value="RX PTP &#xa;TS FIFO" style="swimlane;fontStyle=0;childLayout=stackLayout;horizontal=1;startSize=40;horizontalStack=0;resizeParent=1;resizeParentMax=0;resizeLast=0;collapsible=1;marginBottom=0;labelBackgroundColor=none;fontColor=none;fillColor=#FFD1D4;" parent="1" vertex="1">
          <mxGeometry x="277.5" y="624" width="105" height="100" as="geometry" />
        </mxCell>
        <mxCell id="eM6l_IBHpCTHizDekSns-23" value="  " style="text;strokeColor=default;fillColor=#FFD1D4;align=left;verticalAlign=middle;spacingLeft=4;spacingRight=4;overflow=hidden;points=[[0,0.5],[1,0.5]];portConstraint=eastwest;rotatable=0;labelBackgroundColor=none;fontColor=none;labelBorderColor=none;" parent="eM6l_IBHpCTHizDekSns-22" vertex="1">
          <mxGeometry y="40" width="105" height="20" as="geometry" />
        </mxCell>
        <mxCell id="eM6l_IBHpCTHizDekSns-24" value=" " style="text;strokeColor=default;fillColor=#FFD1D4;align=left;verticalAlign=middle;spacingLeft=4;spacingRight=4;overflow=hidden;points=[[0,0.5],[1,0.5]];portConstraint=eastwest;rotatable=0;labelBackgroundColor=none;fontColor=none;" parent="eM6l_IBHpCTHizDekSns-22" vertex="1">
          <mxGeometry y="60" width="105" height="20" as="geometry" />
        </mxCell>
        <mxCell id="eM6l_IBHpCTHizDekSns-25" value=" " style="text;strokeColor=default;fillColor=#FFD1D4;align=left;verticalAlign=middle;spacingLeft=4;spacingRight=4;overflow=hidden;points=[[0,0.5],[1,0.5]];portConstraint=eastwest;rotatable=0;labelBackgroundColor=none;fontColor=none;" parent="eM6l_IBHpCTHizDekSns-22" vertex="1">
          <mxGeometry y="80" width="105" height="20" as="geometry" />
        </mxCell>
        <mxCell id="eM6l_IBHpCTHizDekSns-26" value="" style="shape=flexArrow;endArrow=classic;startArrow=classic;html=1;rounded=0;entryX=0.5;entryY=1;entryDx=0;entryDy=0;fillColor=default;" parent="1" target="eM6l_IBHpCTHizDekSns-21" edge="1">
          <mxGeometry width="100" height="100" relative="1" as="geometry">
            <mxPoint x="330" y="860" as="sourcePoint" />
            <mxPoint x="575" y="770" as="targetPoint" />
          </mxGeometry>
        </mxCell>
        <mxCell id="eM6l_IBHpCTHizDekSns-27" value="AXI MM to AXI S&lt;br&gt;(AXI4 Slave)" style="rounded=0;whiteSpace=wrap;html=1;fillColor=#3399FF;" parent="1" vertex="1">
          <mxGeometry x="477.5" y="724" width="105" height="50" as="geometry" />
        </mxCell>
        <mxCell id="eM6l_IBHpCTHizDekSns-28" value="RX PTP &#xa;TS FIFO" style="swimlane;fontStyle=0;childLayout=stackLayout;horizontal=1;startSize=40;horizontalStack=0;resizeParent=1;resizeParentMax=0;resizeLast=0;collapsible=1;marginBottom=0;labelBackgroundColor=none;fontColor=none;fillColor=#FFFBED;" parent="1" vertex="1">
          <mxGeometry x="477.5" y="624" width="105" height="100" as="geometry" />
        </mxCell>
        <mxCell id="eM6l_IBHpCTHizDekSns-29" value="  " style="text;strokeColor=default;fillColor=#FFFBED;align=left;verticalAlign=middle;spacingLeft=4;spacingRight=4;overflow=hidden;points=[[0,0.5],[1,0.5]];portConstraint=eastwest;rotatable=0;labelBackgroundColor=none;fontColor=none;labelBorderColor=none;" parent="eM6l_IBHpCTHizDekSns-28" vertex="1">
          <mxGeometry y="40" width="105" height="20" as="geometry" />
        </mxCell>
        <mxCell id="eM6l_IBHpCTHizDekSns-30" value=" " style="text;strokeColor=default;fillColor=#FFFBED;align=left;verticalAlign=middle;spacingLeft=4;spacingRight=4;overflow=hidden;points=[[0,0.5],[1,0.5]];portConstraint=eastwest;rotatable=0;labelBackgroundColor=none;fontColor=none;" parent="eM6l_IBHpCTHizDekSns-28" vertex="1">
          <mxGeometry y="60" width="105" height="20" as="geometry" />
        </mxCell>
        <mxCell id="eM6l_IBHpCTHizDekSns-31" value=" " style="text;strokeColor=default;fillColor=#FFFBED;align=left;verticalAlign=middle;spacingLeft=4;spacingRight=4;overflow=hidden;points=[[0,0.5],[1,0.5]];portConstraint=eastwest;rotatable=0;labelBackgroundColor=none;fontColor=none;" parent="eM6l_IBHpCTHizDekSns-28" vertex="1">
          <mxGeometry y="80" width="105" height="20" as="geometry" />
        </mxCell>
        <mxCell id="eM6l_IBHpCTHizDekSns-32" value="" style="shape=flexArrow;endArrow=classic;startArrow=classic;html=1;rounded=0;entryX=0.5;entryY=1;entryDx=0;entryDy=0;fillColor=default;" parent="1" target="eM6l_IBHpCTHizDekSns-27" edge="1">
          <mxGeometry width="100" height="100" relative="1" as="geometry">
            <mxPoint x="530" y="860" as="sourcePoint" />
            <mxPoint x="775" y="770" as="targetPoint" />
          </mxGeometry>
        </mxCell>
        <mxCell id="eM6l_IBHpCTHizDekSns-33" value="AXI MM to AXI S&lt;br&gt;(AXI4 Slave)" style="rounded=0;whiteSpace=wrap;html=1;fillColor=#3399FF;" parent="1" vertex="1">
          <mxGeometry x="630" y="724" width="105" height="50" as="geometry" />
        </mxCell>
        <mxCell id="eM6l_IBHpCTHizDekSns-34" value="RX PTP &#xa;TS FIFO" style="swimlane;fontStyle=0;childLayout=stackLayout;horizontal=1;startSize=40;horizontalStack=0;resizeParent=1;resizeParentMax=0;resizeLast=0;collapsible=1;marginBottom=0;labelBackgroundColor=none;fontColor=none;fillColor=#FFFBED;" parent="1" vertex="1">
          <mxGeometry x="630" y="624" width="105" height="100" as="geometry" />
        </mxCell>
        <mxCell id="eM6l_IBHpCTHizDekSns-35" value="  " style="text;strokeColor=default;fillColor=#FFFBED;align=left;verticalAlign=middle;spacingLeft=4;spacingRight=4;overflow=hidden;points=[[0,0.5],[1,0.5]];portConstraint=eastwest;rotatable=0;labelBackgroundColor=none;fontColor=none;labelBorderColor=none;" parent="eM6l_IBHpCTHizDekSns-34" vertex="1">
          <mxGeometry y="40" width="105" height="20" as="geometry" />
        </mxCell>
        <mxCell id="eM6l_IBHpCTHizDekSns-36" value=" " style="text;strokeColor=default;fillColor=#FFFBED;align=left;verticalAlign=middle;spacingLeft=4;spacingRight=4;overflow=hidden;points=[[0,0.5],[1,0.5]];portConstraint=eastwest;rotatable=0;labelBackgroundColor=none;fontColor=none;" parent="eM6l_IBHpCTHizDekSns-34" vertex="1">
          <mxGeometry y="60" width="105" height="20" as="geometry" />
        </mxCell>
        <mxCell id="eM6l_IBHpCTHizDekSns-37" value=" " style="text;strokeColor=default;fillColor=#FFFBED;align=left;verticalAlign=middle;spacingLeft=4;spacingRight=4;overflow=hidden;points=[[0,0.5],[1,0.5]];portConstraint=eastwest;rotatable=0;labelBackgroundColor=none;fontColor=none;" parent="eM6l_IBHpCTHizDekSns-34" vertex="1">
          <mxGeometry y="80" width="105" height="20" as="geometry" />
        </mxCell>
        <mxCell id="eM6l_IBHpCTHizDekSns-38" value="" style="shape=flexArrow;endArrow=classic;startArrow=classic;html=1;rounded=0;entryX=0.5;entryY=1;entryDx=0;entryDy=0;fillColor=default;exitX=0.915;exitY=-0.017;exitDx=0;exitDy=0;exitPerimeter=0;" parent="1" source="eM6l_IBHpCTHizDekSns-5" target="eM6l_IBHpCTHizDekSns-33" edge="1">
          <mxGeometry width="100" height="100" relative="1" as="geometry">
            <mxPoint x="683" y="860" as="sourcePoint" />
            <mxPoint x="925" y="770" as="targetPoint" />
          </mxGeometry>
        </mxCell>
        <mxCell id="rF0F1VlUZs5a9LdYZ2Bc-2" value="AXI Stream" style="shape=flexArrow;endArrow=classic;html=1;rounded=0;labelBackgroundColor=default;fontColor=none;fillColor=#FFFFFF;orthogonal=1;horizontal=0;width=20;endSize=7.33;entryX=0.5;entryY=0;entryDx=0;entryDy=0;exitX=0.5;exitY=1;exitDx=0;exitDy=0;" edge="1" parent="1" source="9wRkoVYpAe7Pgj8xl5cS-14">
          <mxGeometry width="50" height="50" relative="1" as="geometry">
            <mxPoint x="164.5" y="520" as="sourcePoint" />
            <mxPoint x="165" y="624" as="targetPoint" />
          </mxGeometry>
        </mxCell>
      </root>
    </mxGraphModel>
  </diagram>
</mxfile>
